PathFileType	4	(X/Y/Z)	s02c0202.trc
DataRate	CameraRate	NumFrames	NumMarkers	Units	OrigDataRate	OrigDataStartFrame	OrigNumFrames
200	200	4	50	mm	200	0	2000
Frame#	Time	racr			lacr			c7			jug			rlel			rdr			llel			ldr			s2			lic			ric			lasi			rasi			rpsi			lpsi			rgt			lgt			rth1			rth2			rth3			rth4			rlfc			rmfc			rsh1			rsh2			rsh3			rsh4			rlmal			rmmal			rtoe			rmt5			rmt1			lth1			lth2			lth4			lth3			llfc			lmfc			lsh1			lsh2			lsh3			lsh4			llmal			lmmal			lcal			ltoe			lmt5			SBIKE			LBIKE			RBIKE			
		X1	Y1	Z1	X2	Y2	Z2	X3	Y3	Z3	X4	Y4	Z4	X5	Y5	Z5	X6	Y6	Z6	X7	Y7	Z7	X8	Y8	Z8	X9	Y9	Z9	X10	Y10	Z10	X11	Y11	Z11	X12	Y12	Z12	X13	Y13	Z13	X14	Y14	Z14	X15	Y15	Z15	X16	Y16	Z16	X17	Y17	Z17	X18	Y18	Z18	X19	Y19	Z19	X20	Y20	Z20	X21	Y21	Z21	X22	Y22	Z22	X23	Y23	Z23	X24	Y24	Z24	X25	Y25	Z25	X26	Y26	Z26	X27	Y27	Z27	X28	Y28	Z28	X29	Y29	Z29	X30	Y30	Z30	X31	Y31	Z31	X32	Y32	Z32	X33	Y33	Z33	X34	Y34	Z34	X35	Y35	Z35	X36	Y36	Z36	X37	Y37	Z37	X38	Y38	Z38	X39	Y39	Z39	X40	Y40	Z40	X41	Y41	Z41	X42	Y42	Z42	X43	Y43	Z43	X44	Y44	Z44	X45	Y45	Z45	X46	Y46	Z46	X47	Y47	Z47	X48	Y48	Z48	X49	Y49	Z49	X50	Y50	Z50	
0	0.0000	455.986851	1307.732688	-146.442704	457.447238	1309.571986	-508.455531	482.539370	1349.164157	-332.797395	427.371647	1223.190241	-325.504416	572.562924	1064.821332	-112.721617	715.930456	887.134737	-128.582043	555.902432	1058.768796	-551.752354	702.944517	884.938271	-518.726739	1.337998	1107.769518	-339.203958	143.365055	1089.970004	-466.889390	122.351904	1108.027922	-184.673775	194.628370	1062.763514	-438.622281	175.767589	1084.419366	-207.395355	7.891996	1127.085204	-292.667729	21.351807	1128.063680	-376.691422	105.123554	1032.062332	-142.646750	98.425150	997.320210	-498.510854	196.820880	1010.193407	-139.624716	283.335869	999.756966	-150.475310	356.126660	959.567428	-128.858593	291.877900	1023.356006	-179.010767	475.549381	871.059003	-164.966930	469.446326	848.760656	-277.261396	454.597882	760.298923	-147.244073	438.355518	673.123862	-163.024399	387.237183	604.476259	-156.136958	452.880413	667.692019	-198.159084	331.012104	495.808114	-160.615107	343.114545	517.106996	-239.613455	543.042414	437.835407	-192.283455	432.780242	420.955017	-138.576967	462.966341	435.833641	-245.182720	205.580729	904.224308	-512.161823	274.766910	852.723568	-508.365908	300.438637	872.592740	-490.601962	307.712214	769.165218	-505.810148	362.678258	685.102663	-483.221177	364.644896	655.390693	-378.192904	311.757087	594.834929	-502.349787	279.856804	515.543186	-487.057744	209.169282	459.552039	-489.752133	295.618309	505.240251	-451.880500	136.904166	386.931670	-473.412002	155.259991	371.395571	-399.732386	60.103277	389.270919	-432.209279	253.508213	177.080240	-444.743341	161.350823	236.649983	-502.444798	-165.623655	856.726096	-317.235466	32.985055	81.511371	-515.588896	33.441976	80.508143	-115.621756	
1	0.0050	455.975493	1307.750730	-146.432880	457.430162	1309.557357	-508.503032	482.494440	1349.240120	-332.830870	427.347644	1223.265219	-325.489384	572.574112	1064.840847	-112.698536	715.935702	887.157166	-128.554438	555.907775	1058.762383	-551.783650	702.954276	884.948683	-518.741638	1.279449	1107.676539	-339.162946	143.304509	1089.952673	-466.926203	122.372552	1108.011169	-184.701455	194.617644	1062.760343	-438.659117	175.759632	1084.437422	-207.384081	7.872386	1127.075038	-292.658821	21.321132	1128.060860	-376.705106	105.123577	1032.054268	-142.659825	98.410117	997.338184	-498.532570	196.824045	1010.172281	-139.637872	283.327045	999.787293	-150.476144	356.105712	959.617439	-128.850093	291.883784	1023.359190	-179.022066	475.541113	871.070060	-164.959765	469.424923	848.761560	-277.262593	454.589392	760.333946	-147.245170	438.349631	673.126307	-163.024067	387.207284	604.493730	-156.129272	452.868918	667.717959	-198.140563	330.994564	495.841785	-160.635691	343.111391	517.127769	-239.636066	543.013311	437.866099	-192.296660	432.784163	420.974280	-138.582548	462.957115	435.847413	-245.166417	205.599804	904.243385	-512.158362	274.768826	852.753963	-508.384537	300.451983	872.627032	-490.615266	307.733862	769.200445	-505.833879	362.720786	685.128361	-483.258028	364.695397	655.401012	-378.235776	311.804031	594.856212	-502.370090	279.934734	515.523332	-487.090423	209.266342	459.528063	-489.769555	295.701528	505.259641	-451.894843	137.010536	386.907147	-473.429134	155.350906	371.361827	-399.756189	60.238526	389.303670	-432.217918	253.508248	177.005713	-444.742116	161.396799	236.630502	-502.456785	-165.503204	855.687277	-320.328437	32.996179	81.494840	-515.604883	33.101357	80.821416	-115.814495	
2	0.0100	455.981969	1307.775636	-146.432435	457.417686	1309.571663	-508.537675	482.393246	1349.374525	-332.842613	427.362095	1223.309578	-325.459855	572.598876	1064.854883	-112.686422	715.931726	887.157173	-128.541417	555.907001	1058.793810	-551.802816	702.947009	884.950692	-518.742113	1.258767	1107.668364	-339.150263	143.299049	1089.955273	-466.910066	122.358304	1107.997965	-184.703490	194.601136	1062.751662	-438.672835	175.759632	1084.437422	-207.384081	7.843447	1127.076302	-292.629771	21.295107	1128.063351	-376.700021	105.109663	1032.039075	-142.677912	98.399626	997.343702	-498.536196	196.815177	1010.169226	-139.638177	283.311163	999.796528	-150.474236	356.113720	959.639110	-128.855885	291.872289	1023.370222	-179.017421	475.540976	871.082642	-164.965062	469.440667	848.789186	-277.277286	454.585939	760.344683	-147.245750	438.312742	673.157832	-163.027156	387.203191	604.508670	-156.136861	452.861576	667.732177	-198.153260	330.988277	495.846083	-160.639265	343.102020	517.147906	-239.636443	543.020123	437.881399	-192.292491	432.755856	420.998937	-138.591855	462.937008	435.877903	-245.190884	205.599162	904.275607	-512.171127	274.793071	852.789874	-508.400759	300.464424	872.673673	-490.620413	307.766533	769.231478	-505.849669	362.752144	685.154248	-483.288008	364.744381	655.421670	-378.239061	311.857427	594.893133	-502.389139	280.003676	515.553337	-487.111431	209.331887	459.543385	-489.800216	295.773663	505.259633	-451.920343	137.131079	386.896699	-473.464198	155.482279	371.380206	-399.783209	60.351423	389.332654	-432.231088	253.501182	176.936407	-444.746802	161.427171	236.592934	-502.453717	-165.442261	855.466998	-320.939908	32.985987	81.510572	-515.604095	33.098096	80.773005	-115.791533	
3	0.0150	455.977708	1307.807681	-146.438529	457.399791	1309.580350	-508.560313	481.578186	1349.570011	-333.059689	427.376824	1223.340934	-325.436762	572.130974	1065.344122	-111.848732	716.025348	887.166091	-128.682711	556.020053	1058.888676	-551.492391	702.938326	884.975496	-518.758276	1.225398	1107.685663	-339.141447	143.260255	1089.953523	-466.938951	122.031546	1107.458372	-185.362170	194.603500	1062.749377	-438.706375	175.723286	1084.455242	-207.371962	7.341423	1127.189135	-292.465261	20.409173	1127.275908	-378.499369	105.036950	1032.147193	-143.471753	98.394436	997.336839	-498.538983	196.133171	1009.615117	-139.888367	283.310217	999.803939	-150.477780	356.108962	959.643054	-128.852106	291.943967	1023.899740	-178.538236	475.539265	871.113276	-164.965640	469.456141	848.813425	-277.270305	454.591680	760.370921	-147.252636	437.173660	672.727136	-163.592162	387.199062	604.537073	-156.134650	455.804657	668.531266	-198.182465	330.688585	496.572472	-160.088881	343.221557	516.908445	-239.873125	543.004952	437.893109	-192.296534	432.756073	421.003549	-138.591475	462.936864	435.892799	-245.193563	205.611583	904.300769	-512.169561	275.019749	852.383205	-508.369071	300.479417	872.702699	-490.623088	307.782692	769.194311	-505.861650	362.946261	685.007831	-483.417071	364.791491	655.433458	-378.275325	312.305544	594.585022	-502.544049	280.316603	515.551741	-487.550632	209.291872	459.752013	-489.898039	297.389598	506.843348	-451.185132	137.370166	386.818384	-473.539023	155.610644	371.325191	-399.800901	60.458112	389.346421	-432.227664	253.516134	176.867364	-444.760349	161.432782	236.403516	-502.535030	-165.451612	856.585986	-317.578468	32.986871	81.509187	-515.599817	33.457497	80.517505	-115.616253	
